<svg width="416" height="500" viewBox="0 0 416 500" fill="none" xmlns="http://www.w3.org/2000/svg">
<path d="M0 218.626C0 339.37 108.35 500 218.884 500C329.418 500 416 254.826 416 134.082C416 13.3381 310.674 0 200.14 0C89.6055 0 0 97.8822 0 218.626Z" fill="#4D4398" fill-opacity="0.43"/>
<path d="M244.537 293.256C244.409 293.256 244.345 293.128 244.345 292.872C244.345 292.424 244.457 291.992 244.681 291.576C245.289 289.72 246.217 287.672 247.465 285.432C248.713 283.192 250.265 280.616 252.121 277.704C253.049 276.2 253.753 275.032 254.233 274.2C254.745 273.368 255.033 272.888 255.097 272.76C253.913 273.4 252.713 274.072 251.497 274.776C250.313 275.48 249.241 276.136 248.281 276.744C247.321 277.32 246.569 277.784 246.025 278.136C245.513 278.392 245.145 278.52 244.921 278.52C244.665 278.52 244.649 278.376 244.873 278.088C245.129 277.8 245.593 277.448 246.265 277.032C246.393 276.968 246.697 276.776 247.177 276.456C247.657 276.136 248.297 275.704 249.097 275.16C254.153 271.736 256.937 270.024 257.449 270.024C257.961 270.024 258.441 270.12 258.889 270.312C259.337 270.472 259.561 270.76 259.561 271.176C259.561 271.464 259.385 271.832 259.033 272.28L257.737 273.912C256.169 275.896 254.793 277.656 253.609 279.192C252.425 280.728 251.369 282.184 250.441 283.56C249.513 284.904 248.633 286.28 247.801 287.688C247.001 289.064 246.169 290.6 245.305 292.296C244.953 292.936 244.697 293.256 244.537 293.256Z" fill="white"/>
<path d="M226.723 292.776C224.003 292.776 222.019 292.296 220.771 291.336C219.523 290.376 218.899 289.272 218.899 288.024C218.899 287.8 218.899 287.624 218.899 287.496C218.931 287.336 218.963 287.208 218.995 287.112C219.283 285.896 219.827 285.048 220.627 284.568C221.427 284.088 222.291 283.768 223.219 283.608C223.315 283.576 223.459 283.56 223.651 283.56C223.971 283.56 224.131 283.64 224.131 283.8C224.131 283.928 224.003 284.088 223.747 284.28C223.523 284.44 223.283 284.552 223.027 284.616C222.291 284.808 221.699 285.256 221.251 285.96C220.803 286.632 220.579 287.368 220.579 288.168C220.579 289.288 221.027 290.232 221.923 291C222.819 291.768 224.195 292.152 226.051 292.152C227.203 292.152 228.419 291.992 229.699 291.672C231.011 291.352 232.259 290.824 233.443 290.088C234.627 289.32 235.587 288.312 236.323 287.064C236.963 285.976 237.283 284.936 237.283 283.944C237.283 282.312 236.483 281.128 234.883 280.392L233.779 280.92C232.723 281.432 231.987 281.736 231.571 281.832C231.219 281.896 230.851 281.96 230.467 282.024C230.083 282.056 229.715 282.072 229.363 282.072C228.659 282.072 228.067 281.976 227.587 281.784C227.139 281.592 226.915 281.288 226.915 280.872C226.915 279.656 228.531 279.048 231.763 279.048C232.755 279.048 233.843 279.272 235.027 279.72C237.203 278.504 238.627 277.256 239.299 275.976C239.587 275.4 239.731 274.872 239.731 274.392C239.731 273.592 239.331 272.968 238.531 272.52C237.763 272.04 236.627 271.8 235.123 271.8C234.195 271.8 233.315 271.944 232.483 272.232C232.515 272.36 232.531 272.488 232.531 272.616C232.563 272.712 232.579 272.792 232.579 272.856C232.579 273.56 232.323 274.28 231.811 275.016C231.299 275.72 230.723 276.184 230.083 276.408C229.507 276.568 229.107 276.648 228.883 276.648C228.403 276.648 228.035 276.52 227.779 276.264C227.555 276.008 227.443 275.688 227.443 275.304C227.443 274.984 227.507 274.664 227.635 274.344C227.795 273.992 228.019 273.704 228.307 273.48C229.395 272.488 230.483 271.8 231.571 271.416C232.659 271 233.923 270.792 235.363 270.792C235.651 270.792 235.907 270.792 236.131 270.792C236.355 270.792 236.547 270.808 236.707 270.84C237.827 270.904 238.803 271.256 239.635 271.896C240.499 272.536 240.931 273.336 240.931 274.296C240.931 274.744 240.851 275.16 240.691 275.544C240.435 276.28 239.843 277.048 238.915 277.848C238.019 278.648 236.947 279.352 235.699 279.96C236.787 280.408 237.683 281.048 238.387 281.88C239.123 282.712 239.491 283.672 239.491 284.76C239.491 285.496 239.299 286.296 238.915 287.16C238.403 288.248 237.523 289.224 236.275 290.088C235.027 290.92 233.571 291.576 231.907 292.056C230.243 292.536 228.515 292.776 226.723 292.776ZM230.035 275.496C230.643 275.336 231.123 275.032 231.475 274.584C231.859 274.104 232.051 273.592 232.051 273.048C232.051 272.984 232.035 272.904 232.003 272.808C232.003 272.712 231.987 272.6 231.955 272.472C231.315 272.696 230.643 273.16 229.939 273.864C229.587 274.216 229.411 274.6 229.411 275.016C229.411 275.432 229.619 275.592 230.035 275.496ZM229.747 281.208C230.419 281.208 231.043 281.112 231.619 280.92C232.003 280.792 232.355 280.664 232.675 280.536C232.995 280.408 233.283 280.28 233.539 280.152C232.771 279.896 231.987 279.768 231.187 279.768C230.579 279.768 230.035 279.848 229.555 280.008C229.075 280.2 228.819 280.392 228.787 280.584C228.787 280.616 228.771 280.648 228.739 280.68C228.739 280.712 228.739 280.744 228.739 280.776C228.739 281.064 229.075 281.208 229.747 281.208Z" fill="white"/>
<path d="M214.019 291.288C213.891 291.288 213.795 291.128 213.731 290.808C213.667 290.488 213.635 290.312 213.635 290.28C213.635 290.12 213.683 289.992 213.779 289.896C214.835 289.352 215.491 289.032 215.747 288.936C215.779 288.904 215.843 288.888 215.939 288.888C216.099 288.888 216.131 289.096 216.035 289.512C215.875 290.088 215.795 290.52 215.795 290.808C215.795 290.904 215.699 290.984 215.507 291.048C215.283 291.112 215.011 291.16 214.691 291.192C214.403 291.256 214.179 291.288 214.019 291.288Z" fill="white"/>
<path d="M206.191 293.976C204.847 293.976 203.567 293.72 202.351 293.208C201.135 292.728 199.711 292.024 198.079 291.096C197.631 290.84 197.231 290.632 196.879 290.472C196.559 290.28 196.287 290.12 196.063 289.992C193.663 291.432 191.839 292.152 190.591 292.152C190.047 292.152 189.599 292.008 189.247 291.72C188.511 291.08 188.143 290.168 188.143 288.984C188.143 288.44 188.223 287.96 188.383 287.544C188.575 287.096 188.799 286.824 189.055 286.728C189.343 286.632 189.631 286.584 189.919 286.584C191.359 286.584 193.391 287.496 196.015 289.32C197.231 288.552 198.287 287.8 199.183 287.064C200.079 286.296 200.927 285.432 201.727 284.472C202.559 283.512 203.423 282.392 204.319 281.112C205.055 280.088 205.631 279.016 206.047 277.896C206.495 276.776 206.719 275.752 206.719 274.824C206.719 273.64 206.351 272.696 205.615 271.992C204.879 271.288 203.727 270.936 202.159 270.936C201.391 270.936 200.655 271.048 199.951 271.272C199.279 271.464 198.623 271.784 197.983 272.232C196.927 273 196.079 273.944 195.439 275.064C194.831 276.152 194.527 277.192 194.527 278.184C194.527 279.048 194.751 279.752 195.199 280.296C195.519 280.712 196.383 280.92 197.791 280.92H198.655C199.007 280.92 199.183 280.936 199.183 280.968C199.183 280.968 199.007 281.048 198.655 281.208C198.367 281.336 197.951 281.4 197.407 281.4C196.319 281.4 195.311 281.08 194.383 280.44C193.455 279.8 192.991 278.952 192.991 277.896C192.991 277.64 193.055 277.272 193.183 276.792C193.407 276.152 193.695 275.544 194.047 274.968C194.431 274.36 194.895 273.8 195.439 273.288C196.527 272.264 197.775 271.48 199.183 270.936C200.623 270.392 202.031 270.12 203.407 270.12C205.263 270.12 206.735 270.6 207.823 271.56C208.911 272.456 209.455 273.72 209.455 275.352C209.455 276.792 208.959 278.344 207.967 280.008C207.007 281.672 205.471 283.368 203.359 285.096C202.655 285.704 201.727 286.392 200.575 287.16C199.455 287.928 198.143 288.776 196.639 289.704C198.143 290.312 199.407 290.792 200.431 291.144C201.455 291.528 202.367 291.784 203.167 291.912C203.967 292.072 204.783 292.152 205.615 292.152C206.927 292.152 207.951 291.928 208.687 291.48C209.423 291.064 209.711 290.504 209.551 289.8V289.656C209.551 289.432 209.615 289.304 209.743 289.272C209.871 289.208 209.983 289.256 210.079 289.416C210.303 289.736 210.415 290.184 210.415 290.76C210.415 291.656 210.079 292.408 209.407 293.016C208.735 293.656 207.663 293.976 206.191 293.976ZM191.887 290.904C192.975 290.904 194.191 290.472 195.535 289.608C195.087 289.288 194.543 288.968 193.903 288.648C193.295 288.296 192.671 288.008 192.031 287.784C191.423 287.528 190.895 287.4 190.447 287.4C189.711 287.4 189.391 287.784 189.487 288.552C189.615 290.12 190.415 290.904 191.887 290.904Z" fill="white"/>
<path d="M174.131 293.256C174.003 293.256 173.939 293.128 173.939 292.872C173.939 292.424 174.051 291.992 174.275 291.576C174.883 289.72 175.811 287.672 177.059 285.432C178.307 283.192 179.859 280.616 181.715 277.704C182.643 276.2 183.347 275.032 183.827 274.2C184.339 273.368 184.627 272.888 184.691 272.76C183.507 273.4 182.307 274.072 181.091 274.776C179.907 275.48 178.835 276.136 177.875 276.744C176.915 277.32 176.163 277.784 175.619 278.136C175.107 278.392 174.739 278.52 174.515 278.52C174.259 278.52 174.243 278.376 174.467 278.088C174.723 277.8 175.187 277.448 175.859 277.032C175.987 276.968 176.291 276.776 176.771 276.456C177.251 276.136 177.891 275.704 178.691 275.16C183.747 271.736 186.531 270.024 187.043 270.024C187.555 270.024 188.035 270.12 188.483 270.312C188.931 270.472 189.155 270.76 189.155 271.176C189.155 271.464 188.979 271.832 188.627 272.28L187.331 273.912C185.763 275.896 184.387 277.656 183.203 279.192C182.019 280.728 180.963 282.184 180.035 283.56C179.107 284.904 178.227 286.28 177.395 287.688C176.595 289.064 175.763 290.6 174.899 292.296C174.547 292.936 174.291 293.256 174.131 293.256Z" fill="white"/>
<path d="M214.48 229.856V198.608H215.872V229.808L214.48 229.856Z" fill="white"/>
<path d="M239.546 170.968C237.21 170.968 235.482 170.616 234.362 169.912C233.274 169.208 232.73 168.312 232.73 167.224C232.73 166.52 232.922 165.848 233.306 165.208C233.69 164.568 234.186 164.056 234.794 163.672C235.402 163.256 236.042 163.048 236.714 163.048C237.386 163.048 237.722 163.144 237.722 163.336C237.722 163.432 237.626 163.56 237.434 163.72C237.242 163.848 237.034 163.96 236.81 164.056C236.106 164.344 235.53 164.824 235.082 165.496C234.634 166.168 234.41 166.872 234.41 167.608C234.41 168.44 234.746 169.128 235.418 169.672C236.09 170.216 237.114 170.488 238.49 170.488C240.73 170.488 242.842 169.976 244.826 168.952C246.81 167.928 248.394 166.68 249.578 165.208C250.794 163.704 251.402 162.328 251.402 161.08C251.402 160.184 251.05 159.48 250.346 158.968C249.674 158.424 248.65 158.152 247.274 158.152C247.146 158.152 246.97 158.168 246.746 158.2C246.522 158.2 246.25 158.216 245.93 158.248C245.482 158.28 244.858 158.424 244.058 158.68C243.258 158.904 242.522 159.128 241.85 159.352C241.21 159.576 240.858 159.736 240.794 159.832C240.538 160.088 240.314 160.216 240.122 160.216C239.866 160.216 239.658 160.072 239.498 159.784C239.338 159.496 239.338 159.24 239.498 159.016C241.834 155.912 243.002 153.56 243.002 151.96C243.002 151.672 242.986 151.464 242.954 151.336C242.954 151.272 242.938 151.24 242.906 151.24C242.906 151.208 242.906 151.176 242.906 151.144C242.906 150.856 243.658 150.536 245.162 150.184C246.058 149.96 247.05 149.768 248.138 149.608C249.258 149.416 250.378 149.272 251.498 149.176C252.65 149.048 253.674 148.984 254.57 148.984C256.138 148.984 257.178 149.144 257.69 149.464C258.17 149.848 258.41 150.296 258.41 150.808C258.41 151.096 258.314 151.384 258.122 151.672C257.802 152.184 257.418 152.568 256.97 152.824C256.554 153.048 256.17 153.16 255.818 153.16C255.306 153.16 255.178 152.984 255.434 152.632C255.722 152.28 256.074 151.912 256.49 151.528C256.906 151.112 256.986 150.744 256.73 150.424C256.634 150.296 256.282 150.232 255.674 150.232C254.874 150.232 253.738 150.344 252.266 150.568C250.794 150.76 248.986 151.064 246.842 151.48L245.642 151.672C245.514 151.704 245.242 151.992 244.826 152.536C244.442 153.048 244.01 153.688 243.53 154.456C243.05 155.192 242.586 155.928 242.138 156.664C241.722 157.368 241.402 157.944 241.178 158.392C240.986 158.84 240.97 159 241.13 158.872C241.45 158.68 241.93 158.472 242.57 158.248C243.242 157.992 243.962 157.768 244.73 157.576C245.498 157.352 246.186 157.208 246.794 157.144C247.37 157.048 247.914 157 248.426 157C250.122 157 251.402 157.4 252.266 158.2C253.162 159 253.61 160.024 253.61 161.272C253.61 162.776 253.002 164.328 251.786 165.928C250.634 167.368 249.002 168.568 246.89 169.528C244.81 170.488 242.362 170.968 239.546 170.968Z" fill="white"/>
<path d="M228.55 171.976C227.206 171.976 225.926 171.72 224.71 171.208C223.494 170.728 222.07 170.024 220.438 169.096C219.99 168.84 219.59 168.632 219.238 168.472C218.918 168.28 218.646 168.12 218.422 167.992C216.022 169.432 214.198 170.152 212.95 170.152C212.406 170.152 211.958 170.008 211.606 169.72C210.87 169.08 210.502 168.168 210.502 166.984C210.502 166.44 210.582 165.96 210.742 165.544C210.934 165.096 211.158 164.824 211.414 164.728C211.702 164.632 211.99 164.584 212.278 164.584C213.718 164.584 215.75 165.496 218.374 167.32C219.59 166.552 220.646 165.8 221.542 165.064C222.438 164.296 223.286 163.432 224.086 162.472C224.918 161.512 225.782 160.392 226.678 159.112C227.414 158.088 227.99 157.016 228.406 155.896C228.854 154.776 229.078 153.752 229.078 152.824C229.078 151.64 228.71 150.696 227.974 149.992C227.238 149.288 226.086 148.936 224.518 148.936C223.75 148.936 223.014 149.048 222.31 149.272C221.638 149.464 220.982 149.784 220.342 150.232C219.286 151 218.438 151.944 217.798 153.064C217.19 154.152 216.886 155.192 216.886 156.184C216.886 157.048 217.11 157.752 217.558 158.296C217.878 158.712 218.742 158.92 220.15 158.92H221.014C221.366 158.92 221.542 158.936 221.542 158.968C221.542 158.968 221.366 159.048 221.014 159.208C220.726 159.336 220.31 159.4 219.766 159.4C218.678 159.4 217.67 159.08 216.742 158.44C215.814 157.8 215.35 156.952 215.35 155.896C215.35 155.64 215.414 155.272 215.542 154.792C215.766 154.152 216.054 153.544 216.406 152.968C216.79 152.36 217.254 151.8 217.798 151.288C218.886 150.264 220.134 149.48 221.542 148.936C222.982 148.392 224.39 148.12 225.766 148.12C227.622 148.12 229.094 148.6 230.182 149.56C231.27 150.456 231.814 151.72 231.814 153.352C231.814 154.792 231.318 156.344 230.326 158.008C229.366 159.672 227.83 161.368 225.718 163.096C225.014 163.704 224.086 164.392 222.934 165.16C221.814 165.928 220.502 166.776 218.998 167.704C220.502 168.312 221.766 168.792 222.79 169.144C223.814 169.528 224.726 169.784 225.526 169.912C226.326 170.072 227.142 170.152 227.974 170.152C229.286 170.152 230.31 169.928 231.046 169.48C231.782 169.064 232.07 168.504 231.91 167.8V167.656C231.91 167.432 231.974 167.304 232.102 167.272C232.23 167.208 232.342 167.256 232.438 167.416C232.662 167.736 232.774 168.184 232.774 168.76C232.774 169.656 232.438 170.408 231.766 171.016C231.094 171.656 230.022 171.976 228.55 171.976ZM214.246 168.904C215.334 168.904 216.55 168.472 217.894 167.608C217.446 167.288 216.902 166.968 216.262 166.648C215.654 166.296 215.03 166.008 214.39 165.784C213.782 165.528 213.254 165.4 212.806 165.4C212.07 165.4 211.75 165.784 211.846 166.552C211.974 168.12 212.774 168.904 214.246 168.904Z" fill="white"/>
<path d="M204.55 169.288C204.422 169.288 204.326 169.128 204.262 168.808C204.198 168.488 204.166 168.312 204.166 168.28C204.166 168.12 204.214 167.992 204.31 167.896C205.366 167.352 206.022 167.032 206.278 166.936C206.31 166.904 206.374 166.888 206.47 166.888C206.63 166.888 206.662 167.096 206.566 167.512C206.406 168.088 206.326 168.52 206.326 168.808C206.326 168.904 206.23 168.984 206.038 169.048C205.814 169.112 205.542 169.16 205.222 169.192C204.934 169.256 204.71 169.288 204.55 169.288Z" fill="white"/>
<path d="M193.068 171.256C192.94 171.256 192.876 171.128 192.876 170.872C192.876 170.424 192.988 169.992 193.212 169.576C193.82 167.72 194.748 165.672 195.996 163.432C197.244 161.192 198.796 158.616 200.652 155.704C201.58 154.2 202.284 153.032 202.764 152.2C203.276 151.368 203.564 150.888 203.628 150.76C202.444 151.4 201.244 152.072 200.028 152.776C198.844 153.48 197.772 154.136 196.812 154.744C195.852 155.32 195.1 155.784 194.556 156.136C194.044 156.392 193.676 156.52 193.452 156.52C193.196 156.52 193.18 156.376 193.404 156.088C193.66 155.8 194.124 155.448 194.796 155.032C194.924 154.968 195.228 154.776 195.708 154.456C196.188 154.136 196.828 153.704 197.628 153.16C202.684 149.736 205.468 148.024 205.98 148.024C206.492 148.024 206.972 148.12 207.42 148.312C207.868 148.472 208.092 148.76 208.092 149.176C208.092 149.464 207.916 149.832 207.564 150.28L206.268 151.912C204.7 153.896 203.324 155.656 202.14 157.192C200.956 158.728 199.9 160.184 198.972 161.56C198.044 162.904 197.164 164.28 196.332 165.688C195.532 167.064 194.7 168.6 193.836 170.296C193.484 170.936 193.228 171.256 193.068 171.256Z" fill="white"/>
<path d="M176.897 171.256C176.769 171.256 176.705 171.128 176.705 170.872C176.705 170.424 176.817 169.992 177.041 169.576C177.649 167.72 178.577 165.672 179.825 163.432C181.073 161.192 182.625 158.616 184.481 155.704C185.409 154.2 186.113 153.032 186.593 152.2C187.105 151.368 187.393 150.888 187.457 150.76C186.273 151.4 185.073 152.072 183.857 152.776C182.673 153.48 181.601 154.136 180.641 154.744C179.681 155.32 178.929 155.784 178.385 156.136C177.873 156.392 177.505 156.52 177.281 156.52C177.025 156.52 177.009 156.376 177.233 156.088C177.489 155.8 177.953 155.448 178.625 155.032C178.753 154.968 179.057 154.776 179.537 154.456C180.017 154.136 180.657 153.704 181.457 153.16C186.513 149.736 189.297 148.024 189.809 148.024C190.321 148.024 190.801 148.12 191.249 148.312C191.697 148.472 191.921 148.76 191.921 149.176C191.921 149.464 191.745 149.832 191.393 150.28L190.097 151.912C188.529 153.896 187.153 155.656 185.969 157.192C184.785 158.728 183.729 160.184 182.801 161.56C181.873 162.904 180.993 164.28 180.161 165.688C179.361 167.064 178.529 168.6 177.665 170.296C177.313 170.936 177.057 171.256 176.897 171.256Z" fill="white"/>
<path d="M247.84 109.776C245.12 109.776 243.136 109.296 241.888 108.336C240.64 107.376 240.016 106.272 240.016 105.024C240.016 104.8 240.016 104.624 240.016 104.496C240.048 104.336 240.08 104.208 240.112 104.112C240.4 102.896 240.944 102.048 241.744 101.568C242.544 101.088 243.408 100.768 244.336 100.608C244.432 100.576 244.576 100.56 244.768 100.56C245.088 100.56 245.248 100.64 245.248 100.8C245.248 100.928 245.12 101.088 244.864 101.28C244.64 101.44 244.4 101.552 244.144 101.616C243.408 101.808 242.816 102.256 242.368 102.96C241.92 103.632 241.696 104.368 241.696 105.168C241.696 106.288 242.144 107.232 243.04 108C243.936 108.768 245.312 109.152 247.168 109.152C248.32 109.152 249.536 108.992 250.816 108.672C252.128 108.352 253.376 107.824 254.56 107.088C255.744 106.32 256.704 105.312 257.44 104.064C258.08 102.976 258.4 101.936 258.4 100.944C258.4 99.312 257.6 98.128 256 97.392L254.896 97.92C253.84 98.432 253.104 98.736 252.688 98.832C252.336 98.896 251.968 98.96 251.584 99.024C251.2 99.056 250.832 99.072 250.48 99.072C249.776 99.072 249.184 98.976 248.704 98.784C248.256 98.592 248.032 98.288 248.032 97.872C248.032 96.656 249.648 96.048 252.88 96.048C253.872 96.048 254.96 96.272 256.144 96.72C258.32 95.504 259.744 94.256 260.416 92.976C260.704 92.4 260.848 91.872 260.848 91.392C260.848 90.592 260.448 89.968 259.648 89.52C258.88 89.04 257.744 88.8 256.24 88.8C255.312 88.8 254.432 88.944 253.6 89.232C253.632 89.36 253.648 89.488 253.648 89.616C253.68 89.712 253.696 89.792 253.696 89.856C253.696 90.56 253.44 91.28 252.928 92.016C252.416 92.72 251.84 93.184 251.2 93.408C250.624 93.568 250.224 93.648 250 93.648C249.52 93.648 249.152 93.52 248.896 93.264C248.672 93.008 248.56 92.688 248.56 92.304C248.56 91.984 248.624 91.664 248.752 91.344C248.912 90.992 249.136 90.704 249.424 90.48C250.512 89.488 251.6 88.8 252.688 88.416C253.776 88 255.04 87.792 256.48 87.792C256.768 87.792 257.024 87.792 257.248 87.792C257.472 87.792 257.664 87.808 257.824 87.84C258.944 87.904 259.92 88.256 260.752 88.896C261.616 89.536 262.048 90.336 262.048 91.296C262.048 91.744 261.968 92.16 261.808 92.544C261.552 93.28 260.96 94.048 260.032 94.848C259.136 95.648 258.064 96.352 256.816 96.96C257.904 97.408 258.8 98.048 259.504 98.88C260.24 99.712 260.608 100.672 260.608 101.76C260.608 102.496 260.416 103.296 260.032 104.16C259.52 105.248 258.64 106.224 257.392 107.088C256.144 107.92 254.688 108.576 253.024 109.056C251.36 109.536 249.632 109.776 247.84 109.776ZM251.152 92.496C251.76 92.336 252.24 92.032 252.592 91.584C252.976 91.104 253.168 90.592 253.168 90.048C253.168 89.984 253.152 89.904 253.12 89.808C253.12 89.712 253.104 89.6 253.072 89.472C252.432 89.696 251.76 90.16 251.056 90.864C250.704 91.216 250.528 91.6 250.528 92.016C250.528 92.432 250.736 92.592 251.152 92.496ZM250.864 98.208C251.536 98.208 252.16 98.112 252.736 97.92C253.12 97.792 253.472 97.664 253.792 97.536C254.112 97.408 254.4 97.28 254.656 97.152C253.888 96.896 253.104 96.768 252.304 96.768C251.696 96.768 251.152 96.848 250.672 97.008C250.192 97.2 249.936 97.392 249.904 97.584C249.904 97.616 249.888 97.648 249.856 97.68C249.856 97.712 249.856 97.744 249.856 97.776C249.856 98.064 250.192 98.208 250.864 98.208Z" fill="white"/>
<path d="M233.964 110.976C232.62 110.976 231.34 110.72 230.124 110.208C228.908 109.728 227.484 109.024 225.852 108.096C225.404 107.84 225.004 107.632 224.652 107.472C224.332 107.28 224.06 107.12 223.836 106.992C221.436 108.432 219.612 109.152 218.364 109.152C217.82 109.152 217.372 109.008 217.02 108.72C216.284 108.08 215.916 107.168 215.916 105.984C215.916 105.44 215.996 104.96 216.156 104.544C216.348 104.096 216.572 103.824 216.828 103.728C217.116 103.632 217.404 103.584 217.692 103.584C219.132 103.584 221.164 104.496 223.788 106.32C225.004 105.552 226.06 104.8 226.956 104.064C227.852 103.296 228.7 102.432 229.5 101.472C230.332 100.512 231.196 99.392 232.092 98.112C232.828 97.088 233.404 96.016 233.82 94.896C234.268 93.776 234.492 92.752 234.492 91.824C234.492 90.64 234.124 89.696 233.388 88.992C232.652 88.288 231.5 87.936 229.932 87.936C229.164 87.936 228.428 88.048 227.724 88.272C227.052 88.464 226.396 88.784 225.756 89.232C224.7 90 223.852 90.944 223.212 92.064C222.604 93.152 222.3 94.192 222.3 95.184C222.3 96.048 222.524 96.752 222.972 97.296C223.292 97.712 224.156 97.92 225.564 97.92H226.428C226.78 97.92 226.956 97.936 226.956 97.968C226.956 97.968 226.78 98.048 226.428 98.208C226.14 98.336 225.724 98.4 225.18 98.4C224.092 98.4 223.084 98.08 222.156 97.44C221.228 96.8 220.764 95.952 220.764 94.896C220.764 94.64 220.828 94.272 220.956 93.792C221.18 93.152 221.468 92.544 221.82 91.968C222.204 91.36 222.668 90.8 223.212 90.288C224.3 89.264 225.548 88.48 226.956 87.936C228.396 87.392 229.804 87.12 231.18 87.12C233.036 87.12 234.508 87.6 235.596 88.56C236.684 89.456 237.228 90.72 237.228 92.352C237.228 93.792 236.732 95.344 235.74 97.008C234.78 98.672 233.244 100.368 231.132 102.096C230.428 102.704 229.5 103.392 228.348 104.16C227.228 104.928 225.916 105.776 224.412 106.704C225.916 107.312 227.18 107.792 228.204 108.144C229.228 108.528 230.14 108.784 230.94 108.912C231.74 109.072 232.556 109.152 233.388 109.152C234.7 109.152 235.724 108.928 236.46 108.48C237.196 108.064 237.484 107.504 237.324 106.8V106.656C237.324 106.432 237.388 106.304 237.516 106.272C237.644 106.208 237.756 106.256 237.852 106.416C238.076 106.736 238.188 107.184 238.188 107.76C238.188 108.656 237.852 109.408 237.18 110.016C236.508 110.656 235.436 110.976 233.964 110.976ZM219.66 107.904C220.748 107.904 221.964 107.472 223.308 106.608C222.86 106.288 222.316 105.968 221.676 105.648C221.068 105.296 220.444 105.008 219.804 104.784C219.196 104.528 218.668 104.4 218.22 104.4C217.484 104.4 217.164 104.784 217.26 105.552C217.388 107.12 218.188 107.904 219.66 107.904Z" fill="white"/>
<path d="M195.829 109.92C194.165 109.824 192.741 109.168 191.557 107.952C190.373 106.704 189.781 105.072 189.781 103.056C189.781 101.648 190.085 100.176 190.693 98.64C191.269 97.104 192.389 95.504 194.053 93.84C195.205 92.688 196.501 91.632 197.941 90.672C199.381 89.712 200.885 88.96 202.453 88.416C204.021 87.84 205.541 87.552 207.013 87.552C207.525 87.552 207.989 87.632 208.405 87.792C208.853 87.952 209.141 88.192 209.269 88.512C209.365 88.704 209.413 88.976 209.413 89.328C209.413 89.648 209.365 89.968 209.269 90.288C209.205 90.576 209.109 90.768 208.981 90.864C210.613 91.312 211.877 92.08 212.773 93.168C213.669 94.224 214.117 95.488 214.117 96.96C214.117 98.08 213.829 99.248 213.253 100.464C212.677 101.648 211.813 102.816 210.661 103.968C208.389 106.24 205.941 107.824 203.317 108.72C200.725 109.616 198.229 110.016 195.829 109.92ZM196.261 109.296C198.277 109.296 200.293 108.8 202.309 107.808C204.325 106.816 206.165 105.488 207.829 103.824C210.773 100.88 212.245 98.288 212.245 96.048C212.245 94.8 211.845 93.792 211.045 93.024C210.245 92.256 209.397 91.744 208.501 91.488C208.309 91.648 208.021 91.856 207.637 92.112C207.285 92.368 207.013 92.496 206.821 92.496C206.597 92.496 206.485 92.352 206.485 92.064C206.485 91.904 206.677 91.76 207.061 91.632C207.477 91.472 207.733 91.36 207.829 91.296C207.701 91.264 207.573 91.248 207.445 91.248C207.349 91.216 207.237 91.2 207.109 91.2C206.629 91.2 205.829 91.296 204.709 91.488C204.293 91.552 203.941 91.616 203.653 91.68C203.365 91.712 203.109 91.728 202.885 91.728C202.533 91.728 202.357 91.648 202.357 91.488C202.357 91.136 202.693 90.896 203.365 90.768C203.717 90.704 204.085 90.656 204.469 90.624C204.885 90.592 205.333 90.576 205.813 90.576C206.805 90.576 207.605 90.624 208.213 90.72C208.469 90.304 208.597 89.92 208.597 89.568C208.597 89.152 208.405 88.848 208.021 88.656C207.637 88.432 207.109 88.352 206.437 88.416C204.549 88.672 202.741 89.36 201.013 90.48C199.221 91.632 197.653 92.976 196.309 94.512C194.965 96.048 194.005 97.456 193.429 98.736C192.629 100.464 192.229 102.16 192.229 103.824C192.229 105.456 192.597 106.784 193.333 107.808C194.101 108.8 195.077 109.296 196.261 109.296Z" fill="white"/>
<path d="M185.074 110.976C183.73 110.976 182.45 110.72 181.234 110.208C180.018 109.728 178.594 109.024 176.962 108.096C176.514 107.84 176.114 107.632 175.762 107.472C175.442 107.28 175.17 107.12 174.946 106.992C172.546 108.432 170.722 109.152 169.474 109.152C168.93 109.152 168.482 109.008 168.13 108.72C167.394 108.08 167.026 107.168 167.026 105.984C167.026 105.44 167.106 104.96 167.266 104.544C167.458 104.096 167.682 103.824 167.938 103.728C168.226 103.632 168.514 103.584 168.802 103.584C170.242 103.584 172.274 104.496 174.898 106.32C176.114 105.552 177.17 104.8 178.066 104.064C178.962 103.296 179.81 102.432 180.61 101.472C181.442 100.512 182.306 99.392 183.202 98.112C183.938 97.088 184.514 96.016 184.93 94.896C185.378 93.776 185.602 92.752 185.602 91.824C185.602 90.64 185.234 89.696 184.498 88.992C183.762 88.288 182.61 87.936 181.042 87.936C180.274 87.936 179.538 88.048 178.834 88.272C178.162 88.464 177.506 88.784 176.866 89.232C175.81 90 174.962 90.944 174.322 92.064C173.714 93.152 173.41 94.192 173.41 95.184C173.41 96.048 173.634 96.752 174.082 97.296C174.402 97.712 175.266 97.92 176.674 97.92H177.538C177.89 97.92 178.066 97.936 178.066 97.968C178.066 97.968 177.89 98.048 177.538 98.208C177.25 98.336 176.834 98.4 176.29 98.4C175.202 98.4 174.194 98.08 173.266 97.44C172.338 96.8 171.874 95.952 171.874 94.896C171.874 94.64 171.938 94.272 172.066 93.792C172.29 93.152 172.578 92.544 172.93 91.968C173.314 91.36 173.778 90.8 174.322 90.288C175.41 89.264 176.658 88.48 178.066 87.936C179.506 87.392 180.914 87.12 182.29 87.12C184.146 87.12 185.618 87.6 186.706 88.56C187.794 89.456 188.338 90.72 188.338 92.352C188.338 93.792 187.842 95.344 186.85 97.008C185.89 98.672 184.354 100.368 182.242 102.096C181.538 102.704 180.61 103.392 179.458 104.16C178.338 104.928 177.026 105.776 175.522 106.704C177.026 107.312 178.29 107.792 179.314 108.144C180.338 108.528 181.25 108.784 182.05 108.912C182.85 109.072 183.666 109.152 184.498 109.152C185.81 109.152 186.834 108.928 187.57 108.48C188.306 108.064 188.594 107.504 188.434 106.8V106.656C188.434 106.432 188.498 106.304 188.626 106.272C188.754 106.208 188.866 106.256 188.962 106.416C189.186 106.736 189.298 107.184 189.298 107.76C189.298 108.656 188.962 109.408 188.29 110.016C187.618 110.656 186.546 110.976 185.074 110.976ZM170.77 107.904C171.858 107.904 173.074 107.472 174.418 106.608C173.97 106.288 173.426 105.968 172.786 105.648C172.178 105.296 171.554 105.008 170.914 104.784C170.306 104.528 169.778 104.4 169.33 104.4C168.594 104.4 168.274 104.784 168.37 105.552C168.498 107.12 169.298 107.904 170.77 107.904Z" fill="white"/>
</svg>
