<svg width="416" height="500" viewBox="0 0 416 500" fill="none" xmlns="http://www.w3.org/2000/svg">
<path d="M416 218.626C416 339.37 307.65 500 197.116 500C86.5823 500 0 254.826 0 134.082C0 13.338 105.326 0 215.86 0C326.394 0 416 97.8822 416 218.626Z" fill="#F0C120" fill-opacity="0.33"/>
<path d="M219.267 282.152C217.539 282.152 215.987 281.688 214.611 280.76C213.235 279.864 212.275 278.6 211.731 276.968C211.667 276.712 211.635 276.504 211.635 276.344C211.635 275.736 211.859 275.144 212.307 274.568C212.723 274.024 213.203 273.64 213.747 273.416L214.131 273.32C214.259 273.32 214.339 273.4 214.371 273.56C214.403 273.72 214.419 273.816 214.419 273.848C214.675 275.864 215.331 277.4 216.387 278.456C217.411 279.512 218.787 280.04 220.515 280.04C222.499 280.04 224.099 279.096 225.315 277.208C226.531 275.352 227.443 272.424 228.051 268.424L231.411 246.824C231.603 245.672 231.699 244.856 231.699 244.376C231.699 243.896 231.571 243.656 231.315 243.656C231.027 243.656 230.659 243.896 230.211 244.376C229.763 244.856 229.347 245.416 228.963 246.056C228.835 246.248 228.691 246.488 228.531 246.776C228.371 247.032 228.243 247.208 228.147 247.304C228.051 247.368 227.955 247.4 227.859 247.4C227.667 247.4 227.571 247.224 227.571 246.872C227.571 246.296 227.923 245.464 228.627 244.376C229.331 243.256 230.147 242.28 231.075 241.448C232.035 240.584 232.867 240.152 233.571 240.152C234.147 240.152 234.563 240.376 234.819 240.824C235.107 241.24 235.219 241.8 235.155 242.504C235.059 243.464 234.851 244.904 234.531 246.824C234.339 247.912 234.211 248.664 234.147 249.08H234.195C235.443 246.808 236.931 244.76 238.659 242.936C240.419 241.08 241.939 240.152 243.219 240.152C244.147 240.152 244.787 240.616 245.139 241.544C245.491 242.472 245.667 243.944 245.667 245.96C245.667 248.712 245.043 251.464 243.795 254.216C242.547 256.936 240.931 259.16 238.947 260.888C236.995 262.616 234.979 263.48 232.899 263.48C232.611 263.48 232.339 263.432 232.083 263.336L231.267 268.136C230.787 270.888 229.971 273.32 228.819 275.432C227.699 277.576 226.323 279.224 224.691 280.376C223.027 281.56 221.219 282.152 219.267 282.152ZM235.683 260.6C236.899 260.6 238.003 259.88 238.995 258.44C239.987 256.968 240.755 255.176 241.299 253.064C241.875 250.92 242.163 248.92 242.163 247.064C242.163 246.008 242.083 245.256 241.923 244.808C241.763 244.328 241.507 244.088 241.155 244.088C240.291 244.088 239.267 244.76 238.083 246.104C236.899 247.448 235.827 249.112 234.867 251.096C233.907 253.08 233.299 254.968 233.043 256.76L232.563 259.736C233.075 260.056 233.571 260.28 234.051 260.408C234.531 260.536 235.075 260.6 235.683 260.6Z" fill="white"/>
<path d="M208.158 263.48C206.526 263.48 205.71 261.928 205.71 258.824C205.71 255.848 206.35 252.92 207.63 250.04C208.942 247.128 210.702 244.76 212.91 242.936C215.118 241.08 217.502 240.152 220.062 240.152C221.374 240.152 222.51 240.36 223.47 240.776C223.054 242.408 222.766 243.608 222.606 244.376L221.598 249.56C220.702 253.656 220.158 256.488 219.966 258.056C219.934 258.28 219.918 258.552 219.918 258.872C219.918 259.576 220.126 259.928 220.542 259.928C221.054 259.928 221.534 259.608 221.982 258.968C222.43 258.296 222.942 257.352 223.518 256.136C223.55 256.104 223.598 256.008 223.662 255.848C223.758 255.688 223.87 255.608 223.998 255.608C224.19 255.608 224.286 255.8 224.286 256.184L224.19 256.952C223.966 258.008 223.502 259.048 222.798 260.072C222.126 261.096 221.358 261.928 220.494 262.568C219.662 263.176 218.91 263.48 218.238 263.48C217.118 263.48 216.558 262.568 216.558 260.744C216.558 260.04 216.638 259.32 216.798 258.584L217.614 254.408H217.566C216.03 257.096 214.382 259.288 212.622 260.984C210.894 262.648 209.406 263.48 208.158 263.48ZM210.414 259.544C211.31 259.544 212.334 258.856 213.486 257.48C214.67 256.072 215.758 254.36 216.75 252.344C217.774 250.328 218.478 248.52 218.862 246.92L219.63 243.848C218.67 243.208 217.662 242.888 216.606 242.888C215.23 242.888 213.966 243.688 212.814 245.288C211.694 246.856 210.814 248.776 210.174 251.048C209.534 253.288 209.214 255.32 209.214 257.144C209.214 257.944 209.294 258.552 209.454 258.968C209.646 259.352 209.966 259.544 210.414 259.544Z" fill="white"/>
<path d="M170.613 263C170.421 263 170.325 262.856 170.325 262.568C170.325 262.248 170.421 261.896 170.613 261.512C170.805 261.128 171.045 260.808 171.333 260.552C172.133 259.912 172.661 259.448 172.917 259.16C173.205 258.84 173.429 258.472 173.589 258.056C173.749 257.64 173.941 256.904 174.165 255.848L179.109 232.76H178.773C178.581 232.76 178.165 232.728 177.525 232.664C176.373 232.568 175.749 232.52 175.653 232.52C173.861 232.52 172.501 233.112 171.573 234.296C171.509 234.392 171.397 234.568 171.237 234.824C171.077 235.048 170.933 235.16 170.805 235.16C170.645 235.16 170.565 235.016 170.565 234.728C170.565 234.408 170.613 234.136 170.709 233.912C171.029 232.568 171.717 231.528 172.773 230.792C173.829 230.056 175.125 229.688 176.661 229.688L178.245 229.736C179.141 229.8 179.861 229.832 180.405 229.832C180.917 229.832 181.493 229.8 182.133 229.736L183.381 229.688C183.253 230.104 183.189 230.712 183.189 231.512C183.189 232.568 183.333 233.912 183.621 235.544C183.941 237.144 184.421 239.352 185.061 242.168L186.549 249.128C186.613 249.416 186.821 250.584 187.173 252.632C188.517 249.976 190.293 246.456 192.501 242.072C194.741 237.656 196.565 234.072 197.973 231.32C199.189 229.016 200.309 227.208 201.333 225.896C202.389 224.552 203.477 223.496 204.597 222.728C205.525 222.12 206.469 221.688 207.429 221.432C208.389 221.144 209.573 220.952 210.981 220.856C212.069 220.792 212.773 220.696 213.093 220.568C213.157 220.536 213.221 220.504 213.285 220.472C213.381 220.408 213.461 220.376 213.525 220.376C213.685 220.376 213.765 220.504 213.765 220.76C213.765 221.848 212.773 222.552 210.789 222.872C210.661 222.904 210.261 222.968 209.589 223.064C208.917 223.16 208.245 223.336 207.573 223.592C206.933 223.816 206.373 224.12 205.893 224.504C204.837 225.336 203.925 226.712 203.157 228.632C202.389 230.52 201.765 233.208 201.285 236.696C201.061 238.104 200.789 240.632 200.469 244.28C200.085 249.08 199.557 253.56 198.885 257.72C198.789 258.488 198.485 259.16 197.973 259.736V259.784C198.773 260.072 199.445 260.216 199.989 260.216C200.437 260.216 200.901 260.136 201.381 259.976C201.861 259.784 202.149 259.688 202.245 259.688C202.405 259.688 202.485 259.784 202.485 259.976C202.485 260.232 202.277 260.584 201.861 261.032C200.741 262.344 199.781 263 198.981 263C198.725 263 198.117 262.872 197.157 262.616C196.005 262.328 195.253 262.184 194.901 262.184C194.325 262.184 193.717 262.328 193.077 262.616C192.469 262.872 192.133 263 192.069 263C191.877 263 191.781 262.856 191.781 262.568C191.781 262.28 191.877 261.96 192.069 261.608C192.261 261.224 192.549 260.872 192.933 260.552C193.861 259.88 194.453 259.368 194.709 259.016C194.997 258.664 195.189 258.184 195.285 257.576L195.525 255.416C195.877 252.216 196.213 249.112 196.533 246.104C196.885 243.096 197.205 240.28 197.493 237.656H197.397C192.469 246.392 189.301 252.664 187.893 256.472C187.413 257.496 186.853 258.504 186.213 259.496C185.573 260.488 185.109 260.984 184.821 260.984C184.565 260.984 184.437 260.824 184.437 260.504C184.341 258.552 184.181 256.872 183.957 255.464C183.765 254.024 183.349 251.752 182.709 248.648C182.197 246.088 181.941 244.808 181.941 244.808C181.333 242.12 180.901 239.976 180.645 238.376H180.597L176.565 257.72C176.469 258.52 176.181 259.192 175.701 259.736V259.784C176.565 260.072 177.205 260.216 177.621 260.216C178.005 260.216 178.373 260.136 178.725 259.976C179.077 259.784 179.301 259.688 179.397 259.688C179.557 259.688 179.637 259.784 179.637 259.976C179.637 260.264 179.429 260.616 179.013 261.032C177.797 262.344 176.837 263 176.133 263C175.845 263 175.381 262.872 174.741 262.616C174.645 262.584 174.405 262.504 174.021 262.376C173.669 262.248 173.317 262.184 172.965 262.184C172.453 262.184 171.957 262.328 171.477 262.616C170.997 262.872 170.709 263 170.613 263Z" fill="white"/>
<path d="M262.983 189.48C261.639 189.48 260.967 188.472 260.967 186.456C260.967 185.464 261.127 184.056 261.447 182.232L263.079 172.344C263.207 171.192 263.271 170.536 263.271 170.376C263.271 169.896 263.143 169.656 262.887 169.656C262.151 169.656 261.287 170.616 260.295 172.536C260.231 172.664 260.119 172.888 259.959 173.208C259.831 173.496 259.719 173.688 259.623 173.784C259.527 173.848 259.431 173.88 259.335 173.88C259.271 173.88 259.207 173.832 259.143 173.736C259.079 173.608 259.047 173.464 259.047 173.304C259.047 172.664 259.367 171.768 260.007 170.616C260.679 169.432 261.495 168.392 262.455 167.496C263.415 166.6 264.327 166.152 265.191 166.152C265.703 166.152 266.103 166.376 266.391 166.824C266.711 167.24 266.871 167.816 266.871 168.552C266.871 169.032 266.839 169.4 266.775 169.656L264.519 183.816C264.455 184.264 264.423 184.552 264.423 184.68C264.423 185.352 264.679 185.688 265.191 185.688C266.247 185.688 267.383 184.984 268.599 183.576C269.847 182.136 270.935 180.424 271.863 178.44C272.823 176.456 273.447 174.712 273.735 173.208L274.407 169.704C274.663 168.552 275.175 167.672 275.943 167.064C276.743 166.456 277.479 166.152 278.151 166.152C278.407 166.152 278.535 166.232 278.535 166.392C278.535 166.488 278.471 166.68 278.343 166.968C278.215 167.224 278.119 167.544 278.055 167.928C277.607 169.912 276.727 174.52 275.415 181.752L275.127 183.288C274.903 184.408 274.791 185.096 274.791 185.352C274.791 185.8 274.935 186.024 275.223 186.024C275.735 186.024 276.295 185.624 276.903 184.824C277.543 183.992 278.055 183.096 278.439 182.136C278.631 181.784 278.791 181.608 278.919 181.608C279.111 181.608 279.207 181.752 279.207 182.04C279.207 182.392 279.175 182.696 279.111 182.952C278.887 184.104 278.439 185.176 277.767 186.168C277.095 187.16 276.343 187.96 275.511 188.568C274.679 189.176 273.911 189.48 273.207 189.48C271.959 189.48 271.367 188.488 271.431 186.504C271.495 185.64 271.687 184.472 272.007 183L272.439 180.648H272.391C270.727 183.304 269.031 185.448 267.303 187.08C265.575 188.68 264.135 189.48 262.983 189.48Z" fill="white"/>
<path d="M237.802 189.48C237.578 189.48 237.466 189.384 237.466 189.192C237.466 189.064 237.578 188.696 237.802 188.088C238.026 187.48 238.17 186.936 238.234 186.456L241.306 167.448C242.522 159.448 244.778 153.832 248.074 150.6C249.098 149.608 250.09 148.92 251.05 148.536C252.042 148.12 253.082 147.832 254.17 147.672C254.618 147.576 255.034 147.464 255.418 147.336C255.802 147.208 256.042 147.144 256.138 147.144C256.394 147.144 256.522 147.272 256.522 147.528C256.522 147.912 256.218 148.376 255.61 148.92C255.258 149.208 254.938 149.4 254.65 149.496C254.394 149.592 254.138 149.656 253.882 149.688C253.626 149.72 253.45 149.752 253.354 149.784C252.458 149.912 251.69 150.168 251.05 150.552C250.41 150.936 249.77 151.512 249.13 152.28C247.786 153.944 246.81 155.896 246.202 158.136C245.594 160.344 245.066 163.064 244.618 166.296L244.378 167.976L242.986 176.904H243.034L244.186 174.936C246.106 171.576 247.786 169.272 249.226 168.024C250.666 166.776 252.058 166.152 253.402 166.152C254.234 166.152 254.89 166.344 255.37 166.728C255.882 167.08 256.138 167.56 256.138 168.168C256.138 168.648 256.01 169.128 255.754 169.608C255.53 170.088 255.306 170.328 255.082 170.328C255.018 170.328 254.954 170.296 254.89 170.232C254.826 170.168 254.762 170.12 254.698 170.088C254.346 169.704 254.01 169.432 253.69 169.272C253.37 169.08 253.018 168.984 252.634 168.984C251.642 168.984 250.666 169.448 249.706 170.376C248.778 171.272 247.738 172.6 246.586 174.36L245.002 176.76C246.282 179.384 247.498 181.56 248.65 183.288C249.834 184.984 250.746 185.832 251.386 185.832C251.93 185.832 252.778 185.016 253.93 183.384C254.186 183.096 254.362 182.952 254.458 182.952C254.682 182.952 254.794 183.128 254.794 183.48L254.698 184.056C254.602 184.6 254.282 185.32 253.738 186.216C253.226 187.08 252.634 187.848 251.962 188.52C251.322 189.16 250.714 189.48 250.138 189.48C249.466 189.48 248.746 188.936 247.978 187.848C247.21 186.76 246.106 184.92 244.666 182.328L243.226 179.592C243.098 179.848 242.906 180.216 242.65 180.696C242.394 181.176 242.266 181.496 242.266 181.656L241.546 185.976C241.418 186.808 240.938 187.608 240.106 188.376C239.274 189.112 238.506 189.48 237.802 189.48Z" fill="white"/>
<path d="M218.218 189.48C216.874 189.48 216.202 188.472 216.202 186.456C216.202 185.464 216.362 184.056 216.682 182.232L218.314 172.344C218.442 171.192 218.506 170.536 218.506 170.376C218.506 169.896 218.378 169.656 218.122 169.656C217.386 169.656 216.522 170.616 215.53 172.536C215.466 172.664 215.354 172.888 215.194 173.208C215.066 173.496 214.954 173.688 214.858 173.784C214.762 173.848 214.666 173.88 214.57 173.88C214.506 173.88 214.442 173.832 214.378 173.736C214.314 173.608 214.282 173.464 214.282 173.304C214.282 172.664 214.602 171.768 215.242 170.616C215.914 169.432 216.73 168.392 217.69 167.496C218.65 166.6 219.562 166.152 220.426 166.152C220.938 166.152 221.338 166.376 221.626 166.824C221.946 167.24 222.106 167.816 222.106 168.552C222.106 169.032 222.074 169.4 222.01 169.656L219.754 183.816C219.69 184.264 219.658 184.552 219.658 184.68C219.658 185.352 219.914 185.688 220.426 185.688C221.482 185.688 222.618 184.984 223.834 183.576C225.082 182.136 226.17 180.424 227.098 178.44C228.058 176.456 228.682 174.712 228.97 173.208L229.642 169.704C229.898 168.552 230.41 167.672 231.178 167.064C231.978 166.456 232.714 166.152 233.386 166.152C233.642 166.152 233.77 166.232 233.77 166.392C233.77 166.488 233.706 166.68 233.578 166.968C233.45 167.224 233.354 167.544 233.29 167.928C232.842 169.912 231.962 174.52 230.65 181.752L230.362 183.288C230.138 184.408 230.026 185.096 230.026 185.352C230.026 185.8 230.17 186.024 230.458 186.024C230.97 186.024 231.53 185.624 232.138 184.824C232.778 183.992 233.29 183.096 233.674 182.136C233.866 181.784 234.026 181.608 234.154 181.608C234.346 181.608 234.442 181.752 234.442 182.04C234.442 182.392 234.41 182.696 234.346 182.952C234.122 184.104 233.674 185.176 233.002 186.168C232.33 187.16 231.578 187.96 230.746 188.568C229.914 189.176 229.146 189.48 228.442 189.48C227.194 189.48 226.602 188.488 226.666 186.504C226.73 185.64 226.922 184.472 227.242 183L227.674 180.648H227.626C225.962 183.304 224.266 185.448 222.538 187.08C220.81 188.68 219.37 189.48 218.218 189.48Z" fill="white"/>
<path d="M208.046 163.416C207.726 163.416 207.582 163.256 207.614 162.936L208.19 159.576C208.35 158.648 208.686 157.944 209.198 157.464C209.742 156.952 210.414 156.696 211.214 156.696H211.406C211.598 156.696 211.71 156.728 211.742 156.792C211.806 156.856 211.822 156.984 211.79 157.176L211.262 160.488C211.134 161.384 210.798 162.104 210.254 162.648C209.71 163.16 209.038 163.416 208.238 163.416H208.046ZM195.182 208.152C193.678 208.152 192.43 207.832 191.438 207.192C190.446 206.552 189.71 205.784 189.23 204.888C188.75 203.992 188.51 203.16 188.51 202.392C188.51 201.624 188.766 200.92 189.278 200.28C189.758 199.64 190.35 199.192 191.054 198.936C191.246 198.872 191.358 198.84 191.39 198.84C191.486 198.84 191.55 198.888 191.582 198.984C191.614 199.08 191.63 199.208 191.63 199.368C191.758 201.48 192.222 203.112 193.022 204.264C193.822 205.448 195.006 206.04 196.574 206.04C197.758 206.04 198.734 205.64 199.502 204.84C200.27 204.072 200.894 202.856 201.374 201.192C201.886 199.56 202.366 197.32 202.814 194.472L206.27 171.912C206.398 171.08 206.462 170.568 206.462 170.376C206.462 169.896 206.318 169.656 206.03 169.656C205.646 169.656 205.182 169.96 204.638 170.568C204.094 171.176 203.502 172.136 202.862 173.448C202.734 173.832 202.574 174.024 202.382 174.024C202.19 174.024 202.094 173.864 202.094 173.544C202.094 172.776 202.43 171.8 203.102 170.616C203.806 169.4 204.654 168.36 205.646 167.496C206.67 166.6 207.614 166.152 208.478 166.152C209.47 166.152 209.966 166.856 209.966 168.264C209.966 168.936 209.87 169.816 209.678 170.904L206.558 191.64C205.758 197.048 204.398 201.144 202.478 203.928C200.558 206.744 198.126 208.152 195.182 208.152Z" fill="white"/>
<path d="M179.855 189.48C179.567 189.48 179.423 189.384 179.423 189.192C179.423 189.064 179.487 188.792 179.615 188.376C179.775 187.928 179.983 187.176 180.239 186.12C180.879 183.464 181.647 179.032 182.543 172.824C182.735 171.608 182.831 170.76 182.831 170.28C182.831 169.864 182.735 169.656 182.543 169.656C181.999 169.656 181.183 170.616 180.095 172.536C179.935 172.824 179.791 173.08 179.663 173.304C179.535 173.496 179.423 173.64 179.327 173.736C179.263 173.832 179.183 173.88 179.087 173.88C178.831 173.88 178.703 173.72 178.703 173.4C178.703 172.76 179.055 171.848 179.759 170.664C180.463 169.48 181.295 168.44 182.255 167.544C183.215 166.616 184.079 166.152 184.847 166.152C185.359 166.152 185.727 166.376 185.951 166.824C186.175 167.272 186.287 167.832 186.287 168.504C186.287 169.56 186.031 171.624 185.519 174.696H185.567C187.039 172.104 188.655 170.04 190.415 168.504C192.175 166.936 193.695 166.152 194.975 166.152C196.319 166.152 196.991 167.096 196.991 168.984C196.991 169.688 196.847 170.872 196.559 172.536L195.455 178.296C194.655 182.36 194.255 184.664 194.255 185.208C194.255 185.432 194.303 185.64 194.399 185.832C194.527 185.992 194.719 186.072 194.975 186.072C195.839 186.072 196.831 184.76 197.951 182.136C198.047 181.784 198.207 181.608 198.431 181.608C198.623 181.608 198.719 181.8 198.719 182.184C198.719 182.472 198.703 182.728 198.671 182.952C198.447 184.104 197.983 185.192 197.279 186.216C196.575 187.208 195.791 188.008 194.927 188.616C194.063 189.192 193.279 189.48 192.575 189.48C191.903 189.48 191.439 189.208 191.183 188.664C190.959 188.088 190.847 187.464 190.847 186.792C190.847 185.352 191.247 182.76 192.047 179.016C192.815 175.368 193.231 172.84 193.295 171.432C193.327 170.856 193.279 170.456 193.151 170.232C193.055 169.976 192.799 169.848 192.383 169.848C191.391 169.848 190.319 170.504 189.167 171.816C188.047 173.128 187.039 174.744 186.143 176.664C185.247 178.552 184.655 180.28 184.367 181.848L183.599 186.024C183.407 186.856 182.895 187.64 182.063 188.376C181.231 189.112 180.495 189.48 179.855 189.48Z" fill="white"/>
<path d="M171.577 163.416C171.257 163.416 171.113 163.256 171.145 162.936L171.721 159.576C171.881 158.648 172.217 157.944 172.729 157.464C173.273 156.952 173.945 156.696 174.745 156.696H174.937C175.129 156.696 175.241 156.728 175.273 156.792C175.337 156.856 175.353 156.984 175.321 157.176L174.793 160.488C174.665 161.384 174.329 162.104 173.785 162.648C173.241 163.16 172.569 163.416 171.769 163.416H171.577ZM168.745 189.48C167.721 189.48 167.209 188.744 167.209 187.272C167.209 186.536 167.305 185.688 167.497 184.728L169.801 171.912C169.929 171.08 169.993 170.568 169.993 170.376C169.993 169.896 169.849 169.656 169.561 169.656C169.177 169.656 168.713 169.96 168.169 170.568C167.625 171.176 167.033 172.136 166.393 173.448C166.265 173.832 166.105 174.024 165.913 174.024C165.721 174.024 165.625 173.864 165.625 173.544C165.625 172.776 165.961 171.8 166.633 170.616C167.337 169.4 168.185 168.36 169.177 167.496C170.201 166.6 171.145 166.152 172.009 166.152C173.001 166.152 173.497 166.856 173.497 168.264C173.497 168.936 173.401 169.816 173.209 170.904L170.713 184.776L170.617 185.4C170.617 185.752 170.761 185.928 171.049 185.928C171.433 185.928 171.897 185.624 172.441 185.016C172.985 184.376 173.577 183.416 174.217 182.136C174.377 181.784 174.537 181.608 174.697 181.608C174.889 181.608 174.985 181.816 174.985 182.232C174.985 182.968 174.633 183.928 173.929 185.112C173.257 186.264 172.425 187.288 171.433 188.184C170.441 189.048 169.545 189.48 168.745 189.48Z" fill="white"/>
<path d="M143.395 189.48C143.171 189.48 143.059 189.4 143.059 189.24C143.091 189.048 143.187 188.648 143.347 188.04C143.539 187.4 143.699 186.76 143.827 186.12C144.019 185.256 144.675 181.464 145.795 174.744C145.731 175.096 146.131 172.664 146.995 167.448C147.603 163.8 148.419 160.536 149.443 157.656C150.499 154.776 151.955 152.424 153.811 150.6C154.867 149.608 155.875 148.92 156.835 148.536C157.827 148.12 158.883 147.832 160.003 147.672C160.387 147.64 160.787 147.544 161.203 147.384C161.619 147.224 161.859 147.144 161.923 147.144C162.147 147.144 162.259 147.272 162.259 147.528C162.259 147.88 161.971 148.344 161.395 148.92C161.107 149.208 160.835 149.4 160.579 149.496C160.323 149.592 160.051 149.656 159.763 149.688C159.507 149.72 159.299 149.752 159.139 149.784C158.243 149.912 157.475 150.168 156.835 150.552C156.227 150.904 155.587 151.48 154.915 152.28C153.635 153.88 152.691 155.736 152.083 157.848C151.507 159.928 150.963 162.552 150.451 165.72C150.323 166.744 150.211 167.496 150.115 167.976L149.059 174.696H149.107C150.611 172.104 152.243 170.04 154.003 168.504C155.763 166.936 157.283 166.152 158.563 166.152C159.907 166.152 160.579 167.128 160.579 169.08C160.579 169.976 160.451 171.128 160.195 172.536C159.587 175.576 159.283 177.096 159.283 177.096C158.355 181.8 157.891 184.504 157.891 185.208C157.891 185.784 158.115 186.072 158.563 186.072C159.107 186.072 159.603 185.72 160.051 185.016C160.499 184.28 160.979 183.32 161.491 182.136C161.523 182.104 161.571 182.008 161.635 181.848C161.731 181.688 161.843 181.608 161.971 181.608C162.195 181.608 162.307 181.8 162.307 182.184L162.211 182.952C161.987 184.104 161.523 185.192 160.819 186.216C160.147 187.208 159.379 188.008 158.515 188.616C157.683 189.192 156.915 189.48 156.211 189.48C155.059 189.48 154.483 188.568 154.483 186.744C154.483 185.848 154.579 184.792 154.771 183.576C154.995 182.36 155.299 180.84 155.683 179.016C156.067 177.192 156.355 175.704 156.547 174.552C156.771 173.4 156.899 172.36 156.931 171.432C156.931 170.824 156.883 170.408 156.787 170.184C156.691 169.96 156.419 169.848 155.971 169.848C154.979 169.848 153.907 170.504 152.755 171.816C151.635 173.096 150.627 174.68 149.731 176.568C148.835 178.456 148.227 180.216 147.907 181.848L147.139 186.024C147.011 186.856 146.531 187.64 145.699 188.376C144.867 189.112 144.099 189.48 143.395 189.48Z" fill="white"/>
<path d="M128.488 189.48C127.048 189.48 125.816 189.192 124.792 188.616C123.768 188.008 122.984 187.288 122.44 186.456C121.928 185.624 121.64 184.84 121.576 184.104C121.576 183.464 121.752 182.808 122.104 182.136C122.456 181.464 122.872 180.904 123.352 180.456C123.832 180.008 124.2 179.784 124.456 179.784C124.616 179.784 124.696 179.88 124.696 180.072C124.856 181.832 125.336 183.448 126.136 184.92C126.936 186.36 128.376 187.08 130.456 187.08C132.12 187.08 133.448 186.568 134.44 185.544C135.432 184.52 135.928 183.096 135.928 181.272C135.928 180.184 135.72 179.176 135.304 178.248C134.888 177.32 134.2 176.28 133.24 175.128L128.536 169.56C128.024 168.888 127.624 168.2 127.336 167.496C127.048 166.76 126.904 165.88 126.904 164.856C126.904 163.192 127.288 161.624 128.056 160.152C128.824 158.68 129.944 157.496 131.416 156.6C132.888 155.672 134.6 155.208 136.552 155.208C138.152 155.208 139.464 155.544 140.488 156.216C141.512 156.856 142.024 157.784 142.024 159C142.024 159.928 141.64 161 140.872 162.216C140.584 162.696 140.264 162.936 139.912 162.936C139.656 162.936 139.48 162.824 139.384 162.6C139.32 162.344 139.256 161.896 139.192 161.256C139.096 158.696 137.72 157.416 135.064 157.416C133.464 157.416 132.216 157.832 131.32 158.664C130.424 159.464 129.976 160.568 129.976 161.976C129.976 163.384 130.568 164.808 131.752 166.248L136.36 171.576C138.344 173.912 139.336 176.36 139.336 178.92C139.336 180.776 138.808 182.52 137.752 184.152C136.728 185.752 135.368 187.048 133.672 188.04C132.008 189 130.28 189.48 128.488 189.48Z" fill="white"/>
</svg>
